<svg xmlns="http://www.w3.org/2000/svg" viewBox="0 0 64 64" role="img" aria-labelledby="title"><title id="title">Mauro courier portrait</title><circle cx="32" cy="32" r="30" fill="#f7efdc" stroke="#d65c70" stroke-width="4"/><path d="M13 58c4-11 10-16 19-16s16 5 20 16" fill="#d65c70"/><path d="M19 27c-3-5 0-11 5-12-1-5 6-8 10-5 3-4 10-1 10 3 6 0 8 7 4 11z" fill="#3a2d29"/><path d="M21 27c0-8 5-13 12-13s12 6 12 14v6c0 8-5 13-12 13S21 42 21 34z" fill="#b97855"/><path d="M19 19c6-6 22-7 29 1l-2 6c-8-4-17-5-26-1z" fill="#d65c70" stroke="#3a2d29" stroke-width="2"/><path d="M24 19c6-2 13-2 20 1" fill="none" stroke="#f7efdc" stroke-width="2" stroke-linecap="round"/><circle cx="28" cy="31" r="1.7" fill="#2b2929"/><circle cx="38" cy="31" r="1.7" fill="#2b2929"/><path d="M27 38c2-2 4-2 6 0 2-2 4-2 6 0-3 5-9 5-12 0z" fill="#4b302a"/><path d="M25 28c2-1 4-1 6 0M35 28c2-1 4-1 6 0" fill="none" stroke="#4b302a" stroke-width="1.6" stroke-linecap="round"/><circle cx="46" cy="35" r="2.3" fill="none" stroke="#e6b84e" stroke-width="1.5"/></svg>
